<?xml version="1.0" encoding="iso-8859-1"?>
<!-- Generator: Adobe Illustrator 19.0.0, SVG Export Plug-In . SVG Version: 6.00 Build 0)  -->
<svg version="1.1" id="Layer_1" xmlns="http://www.w3.org/2000/svg" xmlns:xlink="http://www.w3.org/1999/xlink" x="0px" y="0px"
	 viewBox="0 0 509.287 509.287" style="enable-background:new 0 0 509.287 509.287;" xml:space="preserve">
<circle style="fill:#F1F3F7;" cx="254.644" cy="254.644" r="254.644"/>
<circle style="fill:#4957B8;" cx="340.768" cy="211.242" r="37.976"/>
<circle style="fill:#F0582F;" cx="106.469" cy="445.542" r="37.976"/>
<circle style="fill:#6EB1E1;" cx="168.519" cy="63.746" r="37.976"/>
<circle style="fill:#886C60;" cx="402.819" cy="63.746" r="37.976"/>
<circle style="fill:#EE4A68;" cx="168.519" cy="298.045" r="37.976"/>
<circle style="fill:#4484C5;" cx="402.819" cy="298.045" r="37.976"/>
<g>
	<path style="fill:#646B79;" d="M168.519,259.73c2.713,0,5.086,0.339,7.46,0.678v-41.367h127.152
		c-0.339-2.374-0.678-5.086-0.678-7.46c0-2.713,0.339-5.086,0.678-7.46H176.318V101.044c-2.374,0.339-5.086,0.678-7.46,0.678
		c-8.138,0-15.258-2.374-21.362-6.781l-33.568,79.004c5.086,1.017,9.833,3.052,13.902,5.764l33.229-78.665v102.739h-17.293
		c0.339,2.374,0.678,5.086,0.678,7.46c0,2.713-0.339,5.086-0.678,7.46h17.293v41.706C163.433,260.069,166.146,259.73,168.519,259.73
		z"/>
	<path style="fill:#646B79;" d="M381.457,329.24l-33.229,78.665v-102.4h17.293c-0.339-2.374-0.678-5.086-0.678-7.46
		c0-2.713,0.339-5.086,0.678-7.46h-17.293v-41.706c-2.374,0.339-5.086,0.678-7.46,0.678c-2.713,0-5.086-0.339-7.46-0.678v41.367
		H206.156c0.339,2.374,0.678,5.086,0.678,7.46c0,2.713-0.339,5.086-0.678,7.46h127.152v102.739c2.374-0.339,5.086-0.678,7.46-0.678
		c8.138,0,15.258,2.374,21.362,6.781l33.229-79.004C390.273,334.326,385.526,332.291,381.457,329.24z"/>
	<path style="fill:#646B79;" d="M206.156,55.947c0.339,2.374,0.678,5.086,0.678,7.46c0,2.713-0.339,5.086-0.678,7.46H365.86
		c-0.339-2.374-0.678-5.086-0.678-7.46c0-2.713,0.339-5.086,0.678-7.46H206.156z"/>
	<path style="fill:#646B79;" d="M303.131,453.34c-0.339-2.374-0.678-5.086-0.678-7.46c0-2.713,0.339-5.086,0.678-7.46H143.767
		c0.339,2.374,0.678,5.086,0.678,7.46c0,2.713-0.339,5.086-0.678,7.46H303.131z"/>
	<path style="fill:#646B79;" d="M402.819,101.722c-8.138,0-15.258-2.374-21.362-6.781l-33.229,79.004
		c5.086,1.017,9.833,3.052,13.902,5.764l33.229-78.665v159.364c2.374-0.339,5.086-0.678,7.46-0.678c2.713,0,5.086,0.339,7.46,0.678
		V101.044C408.244,101.383,405.531,101.722,402.819,101.722z"/>
	<path style="fill:#646B79;" d="M147.158,329.24l-33.229,79.004V248.879c-2.374,0.339-5.086,0.678-7.46,0.678
		c-2.713,0-5.086-0.339-7.46-0.678v159.703c2.374-0.339,5.086-0.678,7.46-0.678c8.138,0,15.258,2.374,21.362,6.781l33.229-79.004
		C155.974,334.326,151.226,332.291,147.158,329.24z"/>
</g>
<circle style="fill:#FBD303;" cx="106.469" cy="211.242" r="37.976"/>
<circle style="fill:#73D658;" cx="340.768" cy="445.542" r="37.976"/>
<g>
</g>
<g>
</g>
<g>
</g>
<g>
</g>
<g>
</g>
<g>
</g>
<g>
</g>
<g>
</g>
<g>
</g>
<g>
</g>
<g>
</g>
<g>
</g>
<g>
</g>
<g>
</g>
<g>
</g>
</svg>
