<?xml version="1.0" encoding="iso-8859-1"?>
<!-- Generator: Adobe Illustrator 19.0.0, SVG Export Plug-In . SVG Version: 6.00 Build 0)  -->
<svg version="1.1" id="Layer_1" xmlns="http://www.w3.org/2000/svg" xmlns:xlink="http://www.w3.org/1999/xlink" x="0px" y="0px"
	 viewBox="0 0 512 512" style="enable-background:new 0 0 512 512;" xml:space="preserve">
<path style="fill:#1E0478;" d="M512,77.649v37.477c0,17.555-14.286,31.841-31.841,31.841H465.65L301.087,311.52v75.495
	c0,2.823-1.114,5.519-3.099,7.504l-68.564,68.564c-2.027,2.027-4.744,3.11-7.504,3.11c-1.369,0-2.749-0.265-4.065-0.807
	c-3.959-1.645-6.549-5.519-6.549-9.807V311.52L46.742,146.966H31.841C14.286,146.966,0,132.681,0,115.126V77.649
	c0-17.555,14.286-31.841,31.841-31.841h448.318C497.714,45.808,512,60.094,512,77.649z M490.773,115.126V77.649
	c0-5.848-4.766-10.614-10.614-10.614H31.841c-5.859,0-10.614,4.766-10.614,10.614v37.477c0,5.848,4.755,10.614,10.614,10.614
	h448.318C486.007,125.739,490.773,120.974,490.773,115.126z M282.969,299.622l152.655-152.655H76.768l152.655,152.655
	c2.08,2.08,3.12,4.808,3.11,7.536v122.799l47.326-47.337v-75.399C279.838,304.472,280.868,301.713,282.969,299.622z"/>
<path style="fill:#9B8CCC;" d="M490.773,77.649v37.477c0,5.848-4.766,10.614-10.614,10.614H31.841
	c-5.859,0-10.614-4.766-10.614-10.614V77.649c0-5.848,4.755-10.614,10.614-10.614h448.318
	C486.007,67.035,490.773,71.801,490.773,77.649z"/>
<path style="fill:#94E7EF;" d="M435.625,146.966L282.969,299.622c-2.102,2.091-3.131,4.85-3.11,7.599v75.399l-47.326,47.337V307.158
	c0.011-2.728-1.03-5.455-3.11-7.536L76.768,146.966H435.625z"/>
<g>
</g>
<g>
</g>
<g>
</g>
<g>
</g>
<g>
</g>
<g>
</g>
<g>
</g>
<g>
</g>
<g>
</g>
<g>
</g>
<g>
</g>
<g>
</g>
<g>
</g>
<g>
</g>
<g>
</g>
</svg>
