<?xml version="1.0" encoding="iso-8859-1"?>
<!-- Generator: Adobe Illustrator 19.0.0, SVG Export Plug-In . SVG Version: 6.00 Build 0)  -->
<svg version="1.1" id="Layer_1" xmlns="http://www.w3.org/2000/svg" xmlns:xlink="http://www.w3.org/1999/xlink" x="0px" y="0px"
	 viewBox="0 0 512 512" style="enable-background:new 0 0 512 512;" xml:space="preserve">
<circle style="fill:#E16B5A;" cx="256" cy="256" r="256"/>
<path style="fill:#D16354;" d="M462.6,407.12c-0.696-1.992-1.66-3.84-2.908-5.488c-0.384-3.964-1.828-7.628-4.048-10.776
	c-0.5-4.2-2.184-8.216-4.672-11.684c-0.736-2.756-1.916-5.38-3.492-7.752c-0.564-3.412-1.892-6.524-3.828-9.216
	c-0.452-3.94-1.92-7.668-4.116-10.904c-0.532-3.46-1.884-6.584-3.856-9.272c-0.412-3.944-1.88-7.64-4.088-10.84
	c-0.484-3.532-1.868-6.684-3.892-9.372c-0.376-3.94-1.82-7.592-4.036-10.752c-0.448-3.868-1.932-7.584-4.12-10.876
	c-0.564-3.676-2.076-7.052-4.288-9.936c-0.664-2.868-1.912-5.5-3.584-7.828c-0.436-3.92-1.916-7.64-4.116-10.892
	c-0.516-3.468-1.88-6.608-3.872-9.32c-0.4-3.916-1.864-7.596-4.072-10.804c-0.552-4.104-2.332-7.708-4.94-10.672
	c-2.668-8.34-9.796-14.716-18.544-16.328c-0.152-0.332-0.3-0.668-0.452-0.996c-1.12-3.516-2.464-6.928-4-10.24
	c-1.12-3.52-2.464-6.94-4-10.252c-1.12-3.516-2.464-6.928-4-10.24c-1.752-5.512-4.04-10.792-6.792-15.776
	c-0.384-0.904-0.796-1.784-1.208-2.672c-1.12-3.516-2.464-6.928-4-10.24c-1.12-3.52-2.464-6.94-4-10.252
	c-1.12-3.516-2.464-6.928-4-10.24c-2.776-8.736-6.9-16.872-12.096-24.192C316.252,93.416,288.032,76,255.812,76
	c-48.524,0-88,39.476-88,88v2.048v2.048V176v2.048v2.048V224h-28c-13.2,0-24,10.8-24,24v2.048V252v0.096v1.952v2.048V392v2.048
	v2.048c0,4.648,1.568,8.968,4.14,12.64c0.436,3.844,1.92,7.556,4.104,10.844c0.512,3.432,1.888,6.6,3.88,9.376
	c0.4,3.84,1.864,7.516,4.06,10.764c0.5,3.72,2.048,7.088,4.308,9.98c0.64,2.912,1.904,5.56,3.624,7.904
	c0.388,3.9,1.848,7.568,4.056,10.768c0.464,3.544,1.872,6.724,3.932,9.452c0.348,3.912,1.8,7.556,4.028,10.724
	c0.056,0.492,0.172,0.976,0.264,1.46C183.94,504.1,219.036,512,255.996,512C340.848,512,416.02,470.692,462.6,407.12z"/>
<path style="fill:#E6E6E6;" d="M395.812,392c0,13.2-10.8,24-24,24h-232c-13.2,0-24-10.8-24-24V248c0-13.2,10.8-24,24-24h232
	c13.2,0,24,10.8,24,24V392z"/>
<path style="fill:#FFD464;" d="M395.812,392c0,13.2-10.8,24-24,24h-232c-13.2,0-24-10.8-24-24V248c0-13.2,10.8-24,24-24h232
	c13.2,0,24,10.8,24,24V392z"/>
<path style="fill:#E6BF5A;" d="M371.812,224h-16c13.2,0,24,10.8,24,24v144c0,13.2-10.8,24-24,24h16c13.2,0,24-10.8,24-24V248
	C395.812,234.8,385.012,224,371.812,224z"/>
<path style="fill:#E6E6E6;" d="M191.812,224v-60c0-35.288,28.712-64,64-64s64,28.712,64,64v60h24v-60c0-48.524-39.476-88-88-88
	s-88,39.476-88,88v60H191.812z"/>
<path style="fill:#CC803D;" d="M287.812,300c0-17.672-14.328-32-32-32s-32,14.328-32,32c0,10.1,4.692,19.092,12,24.956V352
	c0,11.044,8.956,20,20,20c11.048,0,20-8.956,20-20v-27.044C283.12,319.092,287.812,310.1,287.812,300z"/>
<path style="fill:#B37035;" d="M243.812,352v-27.044c-7.308-5.864-12-14.856-12-24.956c0-16.316,12.22-29.752,28-31.728
	c-1.312-0.164-2.644-0.272-4-0.272c-17.672,0-32,14.328-32,32c0,10.1,4.692,19.092,12,24.956V352c0,11.044,8.956,20,20,20
	c1.372,0,2.708-0.14,4-0.408C250.684,369.744,243.812,361.676,243.812,352z"/>
<path style="fill:#F5F5F5;" d="M255.812,76c-48.524,0-88,39.476-88,88v12c6.628,0,12-5.372,12-12c0-41.908,34.092-76,76-76
	s76,34.092,76,76c0,6.628,5.372,12,12,12v-12C343.812,115.476,304.336,76,255.812,76z"/>
<circle style="fill:#FFD464;" cx="255.812" cy="300" r="12"/>
<path style="fill:#E6BF5A;" d="M255.812,288c-0.684,0-1.344,0.092-2,0.2c5.668,0.956,10,5.856,10,11.8s-4.332,10.84-10,11.8
	c0.656,0.104,1.316,0.2,2,0.2c6.628,0,12-5.372,12-12S262.44,288,255.812,288z"/>
<g>
	<rect x="115.812" y="244" style="fill:#FFF1CC;" width="280" height="16"/>
	<rect x="115.812" y="380" style="fill:#FFF1CC;" width="280" height="16"/>
</g>
<g>
	<rect x="167.812" y="220" style="fill:#CCCCCC;" width="24" height="4"/>
	<rect x="319.812" y="220" style="fill:#CCCCCC;" width="24" height="4"/>
</g>
<g>
</g>
<g>
</g>
<g>
</g>
<g>
</g>
<g>
</g>
<g>
</g>
<g>
</g>
<g>
</g>
<g>
</g>
<g>
</g>
<g>
</g>
<g>
</g>
<g>
</g>
<g>
</g>
<g>
</g>
</svg>
