<?xml version="1.0" encoding="iso-8859-1"?>
<!-- Generator: Adobe Illustrator 19.0.0, SVG Export Plug-In . SVG Version: 6.00 Build 0)  -->
<svg version="1.1" id="Capa_1" xmlns="http://www.w3.org/2000/svg" xmlns:xlink="http://www.w3.org/1999/xlink" x="0px" y="0px"
	 viewBox="0 0 512 512" style="enable-background:new 0 0 512 512;" xml:space="preserve">
<path style="fill:#FED322;" d="M464.945,479.408L32.761,47.237L7.837,22.314L7.836,504.332h0.001h482.032L464.945,479.408z
	 M108.917,231.082L280.95,403.114l24.923,24.924H83.995V206.159L108.917,231.082z"/>
<g>
	<polygon style="fill:#EEBF00;" points="32.761,479.408 32.759,479.408 32.761,47.237 7.837,22.314 7.836,504.332 7.837,504.332 
		489.87,504.332 464.945,479.408 	"/>
	<polygon style="fill:#EEBF00;" points="294.432,308.9 263.377,385.541 280.95,403.113 312.653,327.12 	"/>
	<polygon style="fill:#EEBF00;" points="235.489,357.653 266.544,281.013 249.29,263.76 218.168,340.332 	"/>
</g>
<path d="M0.169,3.8V512h508.217L0.169,3.8z M15.505,466.492h18.107v-15.338H15.505v-29.488h32.676v-15.338H15.505V376.84h18.107
	v-15.338H15.506v-29.487h32.676v-15.338H15.506v-29.488h18.106v-15.338H15.506v-29.13h32.675v-15.338H15.506v-29.487h18.106v-15.338
	H15.506v-29.846h32.675v-15.338H15.506v-29.487h18.106V92.545H15.506V40.829l455.848,455.832h-52.811v-18.319h-15.338v18.319
	h-29.487v-32.887H358.38v32.887h-29.487v-18.319h-15.338v18.319h-29.487v-32.887H268.73v32.887h-29.49v-18.319h-15.338v18.319
	h-29.13v-32.887h-15.338v32.887h-29.487v-18.319h-15.338v18.319h-29.847v-32.887h-15.34v32.887H59.934v-18.319H44.596v18.319H15.505
	V466.492z"/>
<path d="M76.325,435.706h248.062L76.325,187.644V435.706z M91.664,224.674l195.694,195.694H91.664V224.674z"/>
<rect x="6.426" y="282.158" transform="matrix(0.7071 0.7071 -0.7071 0.7071 270.0216 -72.2369)" width="431.566" height="15.338"/>
<path style="fill:#97C7EF;" d="M350.627,24.752V60.53c5.183-2.446,10.972-3.819,17.083-3.819V7.669
	C358.275,7.669,350.627,15.318,350.627,24.752z"/>
<path style="fill:#C3DFF7;" d="M367.709,7.669L367.709,7.669v49.043l0,0c6.112,0,11.901,1.373,17.083,3.819V24.752
	C384.793,15.318,377.145,7.669,367.709,7.669z"/>
<path style="fill:#00E7F1;" d="M384.793,60.531c-5.183-2.446-10.972-3.819-17.083-3.819c-6.112,0-11.9,1.373-17.083,3.819
	c-13.594,6.414-23.003,20.239-23.003,36.268c0,7.334,1.979,14.2,5.416,20.115c6.387,10.985,17.838,18.654,31.16,19.811
	c1.158,0.1,2.326,0.162,3.509,0.162s2.352-0.061,3.509-0.162c13.323-1.157,24.773-8.826,31.16-19.811
	c3.438-5.913,5.416-12.781,5.416-20.115C407.797,80.771,398.387,66.946,384.793,60.531z"/>
<g>
	<path style="fill:#C3DFF7;" d="M402.38,116.913c-6.387,10.985-17.838,18.654-31.16,19.811l108.265,267.185l16.413-6.651
		l5.356-36.337L402.38,116.913z"/>
	<path style="fill:#C3DFF7;" d="M333.04,116.913l-98.875,244.008l5.356,36.337l16.413,6.651L364.2,136.724
		C350.877,135.567,339.427,127.898,333.04,116.913z"/>
</g>
<g>
	<path style="fill:#97C7EF;" d="M364.2,136.724c-5.8-0.503-11.243-2.243-16.07-4.951L240.408,397.617l15.526,6.292L364.2,136.724z"
		/>
	<path style="fill:#97C7EF;" d="M371.219,136.724c5.8-0.503,11.243-2.243,16.07-4.951l107.723,265.845l-15.527,6.292
		L371.219,136.724z"/>
</g>
<path style="fill:#ABFEF6;" d="M377.222,76.603c-2.887-1.362-6.11-2.127-9.513-2.127s-6.626,0.765-9.513,2.127
	c-7.57,3.572-12.81,11.271-12.81,20.195c0,4.084,1.101,7.907,3.017,11.201c3.556,6.117,9.933,10.388,17.352,11.031
	c0.644,0.056,1.296,0.09,1.954,0.09c0.659,0,1.31-0.035,1.954-0.09c7.419-0.644,13.795-4.914,17.352-11.031
	c1.914-3.293,3.017-7.117,3.017-11.201C390.032,87.873,384.792,80.174,377.222,76.603z"/>
<path d="M511.831,441.524l-14.774-36.46l5.787-2.345l6.301-42.744l-98.332-242.668c3.041-6.387,4.652-13.399,4.652-20.508
	c0-16.715-8.887-32.245-23.004-40.835V24.752C392.462,11.103,381.358,0,367.709,0c-13.648,0-24.752,11.103-24.752,24.752v31.211
	c-14.117,8.588-23.004,24.119-23.004,40.835c0,7.11,1.611,14.121,4.652,20.508l-98.331,242.668l6.3,42.743l5.788,2.345
	l-14.774,36.461l14.216,5.76l14.774-36.46l7.584,3.074L367.71,148.485l107.548,265.412l7.584-3.073l14.774,36.46L511.831,441.524z
	 M358.296,24.752c0-5.19,4.223-9.414,9.414-9.414c5.192,0,9.415,4.223,9.415,9.414v25.216c-0.291-0.058-0.586-0.1-0.878-0.153
	c-0.339-0.061-0.679-0.124-1.02-0.178c-0.504-0.08-1.01-0.145-1.517-0.209c-0.321-0.04-0.641-0.085-0.963-0.119
	c-0.561-0.058-1.127-0.099-1.691-0.138c-0.272-0.019-0.542-0.046-0.815-0.06c-0.839-0.043-1.681-0.069-2.528-0.069
	s-1.689,0.025-2.528,0.069c-0.273,0.014-0.544,0.041-0.816,0.06c-0.564,0.039-1.129,0.08-1.69,0.138
	c-0.323,0.034-0.644,0.079-0.966,0.12c-0.506,0.063-1.011,0.129-1.513,0.209c-0.343,0.054-0.683,0.118-1.025,0.179
	c-0.291,0.053-0.585,0.095-0.875,0.152V24.752H358.296z M353.899,67.467c4.34-2.047,8.986-3.086,13.811-3.086
	c1.207,0,2.401,0.064,3.583,0.194c3.546,0.388,6.973,1.356,10.228,2.892l0.016,0.008c11.294,5.338,18.591,16.846,18.591,29.324
	c0,5.712-1.513,11.334-4.379,16.26c-0.664,1.141-1.391,2.232-2.176,3.271c-0.785,1.039-1.63,2.025-2.526,2.955
	c-0.01,0.011-0.021,0.02-0.032,0.032c-4.028,4.166-9.107,7.193-14.699,8.733c-1.868,0.514-3.794,0.863-5.756,1.034
	c-2.079,0.18-3.624,0.179-5.696,0.001c-10.47-0.909-19.889-6.899-25.194-16.025c-2.864-4.926-4.378-10.549-4.378-16.26
	C335.291,84.314,342.597,72.8,353.899,67.467z M251.707,393.921l-5.239-2.122l-4.411-29.932L335.27,131.83
	c0.019,0.018,0.041,0.035,0.06,0.053c0.189,0.174,0.388,0.335,0.58,0.507c0.495,0.442,0.99,0.881,1.501,1.302
	c0.271,0.222,0.552,0.429,0.827,0.646c0.447,0.351,0.893,0.704,1.351,1.037c0.311,0.227,0.632,0.44,0.948,0.659
	c0.438,0.304,0.874,0.607,1.322,0.896c0.338,0.218,0.684,0.422,1.027,0.632c0.44,0.268,0.879,0.536,1.328,0.789
	c0.358,0.202,0.723,0.394,1.086,0.588c0.447,0.238,0.895,0.474,1.35,0.698c0.374,0.184,0.754,0.359,1.132,0.534
	c0.456,0.21,0.913,0.415,1.375,0.61c0.389,0.165,0.781,0.321,1.175,0.474c0.464,0.182,0.93,0.357,1.4,0.525
	c0.402,0.143,0.806,0.28,1.212,0.413c0.225,0.074,0.446,0.159,0.673,0.229L251.707,393.921z M381.803,142.421
	c0.231-0.072,0.456-0.158,0.685-0.233c0.399-0.13,0.795-0.265,1.188-0.405c0.478-0.17,0.951-0.348,1.422-0.533
	c0.388-0.151,0.773-0.306,1.157-0.467c0.468-0.197,0.931-0.406,1.392-0.618c0.374-0.173,0.749-0.345,1.119-0.527
	c0.459-0.226,0.911-0.464,1.362-0.705c0.36-0.192,0.721-0.381,1.076-0.582c0.451-0.256,0.894-0.525,1.336-0.795
	c0.341-0.208,0.684-0.411,1.02-0.628c0.449-0.289,0.888-0.595,1.327-0.9c0.315-0.218,0.634-0.43,0.944-0.655
	c0.457-0.333,0.9-0.684,1.345-1.033c0.278-0.218,0.561-0.427,0.834-0.651c0.504-0.414,0.992-0.848,1.479-1.281
	c0.199-0.178,0.406-0.346,0.602-0.527c0.019-0.017,0.04-0.034,0.058-0.051l93.214,230.037l-4.412,29.932l-5.239,2.122
	L381.803,142.421z"/>
<path d="M367.709,111.931c8.344,0,15.133-6.789,15.133-15.133c0-8.343-6.789-15.132-15.133-15.132s-15.133,6.789-15.133,15.132
	C352.577,105.142,359.365,111.931,367.709,111.931z M367.709,96.593c0.113,0,0.206,0.092,0.206,0.206c0,0.228-0.411,0.228-0.411,0
	C367.504,96.685,367.596,96.593,367.709,96.593z"/>
<g>
</g>
<g>
</g>
<g>
</g>
<g>
</g>
<g>
</g>
<g>
</g>
<g>
</g>
<g>
</g>
<g>
</g>
<g>
</g>
<g>
</g>
<g>
</g>
<g>
</g>
<g>
</g>
<g>
</g>
</svg>
