<?xml version="1.0" encoding="iso-8859-1"?>
<!-- Generator: Adobe Illustrator 19.0.0, SVG Export Plug-In . SVG Version: 6.00 Build 0)  -->
<svg version="1.1" id="Capa_1" xmlns="http://www.w3.org/2000/svg" xmlns:xlink="http://www.w3.org/1999/xlink" x="0px" y="0px"
	 viewBox="0 0 512 512" style="enable-background:new 0 0 512 512;" xml:space="preserve">
<path style="fill:#E6595A;" d="M287.268,121.872l-21.876-18.345c-4.173-3.499-6.374-8.814-5.898-14.238l2.497-28.441
	c0.459-5.224-3.912-9.593-9.135-9.135l-28.441,2.497c-5.424,0.476-10.739-1.725-14.238-5.898l-18.345-21.876
	c-3.37-4.017-9.55-4.017-12.919,0l-18.345,21.876c-3.499,4.173-8.814,6.374-14.238,5.898l-28.441-2.497
	c-5.224-0.459-9.593,3.912-9.136,9.135l2.497,28.441c0.476,5.424-1.725,10.739-5.898,14.238l-21.876,18.345
	c-4.017,3.37-4.017,9.55,0,12.919l21.876,18.345c4.172,3.499,6.374,8.814,5.898,14.238l-2.497,28.441
	c-0.459,5.224,3.912,9.593,9.136,9.135l28.441-2.497c5.424-0.476,10.739,1.725,14.238,5.898l18.345,21.876
	c3.37,4.018,9.55,4.018,12.919,0l18.345-21.876c3.499-4.173,8.814-6.374,14.238-5.898l28.441,2.497
	c5.224,0.459,9.593-3.912,9.135-9.135l-2.497-28.441c-0.476-5.424,1.725-10.739,5.898-14.238l21.876-18.345
	C291.287,131.421,291.287,125.241,287.268,121.872z"/>
<circle style="fill:#F3C74F;" cx="185.368" cy="128.336" r="58.88"/>
<path style="fill:#76C9D2;" d="M379.006,296.17V65.249C379.006,29.213,349.794,0,313.758,0c-36.037,0-65.249,29.213-65.249,65.249
	v230.921c-31.663,21.113-52.53,57.14-52.53,98.05c0,65.047,52.732,117.779,117.779,117.779s117.779-52.731,117.779-117.779
	C431.537,353.309,410.669,317.283,379.006,296.17z"/>
<path style="fill:#E6595A;" d="M353.597,309.981V98.226c0-5.689-4.612-10.302-10.302-10.302H284.22
	c-5.689,0-10.302,4.612-10.302,10.302v211.755c-31.816,14.859-53.974,46.94-54.437,84.261
	c-0.646,52.034,40.035,94.258,92.059,95.451c53.085,1.218,96.501-41.45,96.501-94.258
	C408.042,357.606,385.751,324.998,353.597,309.981z"/>
<path style="opacity:0.1;enable-background:new    ;" d="M305.606,249.826c0,4.502,3.65,8.152,8.152,8.152h65.248v-16.304h-65.248
	C309.256,241.674,305.606,245.323,305.606,249.826z M305.606,184.275c0,4.502,3.65,8.152,8.152,8.152h65.248v-16.304h-65.248
	C309.256,176.123,305.606,179.773,305.606,184.275z M313.758,110.572c-4.502,0-8.152,3.65-8.152,8.152s3.65,8.152,8.152,8.152
	h65.248v-16.304H313.758z"/>
<g>
	<path style="fill:#394049;" d="M252.104,394.649c-4.502,0-8.152-3.65-8.152-8.152v-2.893c0-4.502,3.65-8.152,8.152-8.152
		s8.152,3.65,8.152,8.152v2.893C260.256,390.999,256.607,394.649,252.104,394.649z"/>
	<path style="fill:#394049;" d="M375.411,394.649c-4.502,0-8.152-3.65-8.152-8.152v-2.893c0-4.502,3.65-8.152,8.152-8.152
		c4.502,0,8.152,3.65,8.152,8.152v2.893C383.563,390.999,379.913,394.649,375.411,394.649z"/>
</g>
<g>
	<path style="fill:#FFFFFF;" d="M260.927,415.422h-17.644c-4.502,0-8.152-3.65-8.152-8.152c0-4.502,3.65-8.152,8.152-8.152h17.644
		c4.502,0,8.152,3.65,8.152,8.152C269.079,411.772,265.429,415.422,260.927,415.422z"/>
	<path style="fill:#FFFFFF;" d="M384.233,415.422h-17.644c-4.502,0-8.152-3.65-8.152-8.152c0-4.502,3.65-8.152,8.152-8.152h17.644
		c4.502,0,8.152,3.65,8.152,8.152C392.385,411.772,388.736,415.422,384.233,415.422z"/>
</g>
<path style="fill:#394049;" d="M313.758,420.347c-14.351,0-26.025-11.675-26.025-26.025c0-14.351,11.675-26.025,26.025-26.025
	c14.35,0,26.025,11.675,26.025,26.025C339.783,408.672,328.108,420.347,313.758,420.347z M313.758,384.6
	c-5.36,0-9.721,4.361-9.721,9.721c0,5.36,4.361,9.721,9.721,9.721c5.36,0,9.721-4.361,9.721-9.721
	C323.479,388.961,319.118,384.6,313.758,384.6z"/>
<g style="opacity:0.2;">
	<path style="fill:#FFFFFF;" d="M376.014,45.67L248.509,173.174v104.603L379.006,147.28V65.249
		C379.006,58.427,377.956,51.851,376.014,45.67z"/>
</g>
<path style="opacity:0.2;fill:#FFFFFF;enable-background:new    ;" d="M313.758,0c-36.037,0-65.249,29.213-65.249,65.249v42.055
	l98.304-98.305C337.118,3.289,325.824,0,313.758,0z"/>
<g style="opacity:0.2;">
	<path style="fill:#FFFFFF;" d="M425.818,357.884L277.423,506.278c11.446,3.709,23.654,5.721,36.336,5.721
		c65.047,0,117.779-52.731,117.779-117.779C431.537,381.538,429.527,369.328,425.818,357.884z"/>
</g>
<g>
</g>
<g>
</g>
<g>
</g>
<g>
</g>
<g>
</g>
<g>
</g>
<g>
</g>
<g>
</g>
<g>
</g>
<g>
</g>
<g>
</g>
<g>
</g>
<g>
</g>
<g>
</g>
<g>
</g>
</svg>
