<?xml version="1.0" encoding="iso-8859-1"?>
<!-- Generator: Adobe Illustrator 19.0.0, SVG Export Plug-In . SVG Version: 6.00 Build 0)  -->
<svg version="1.1" id="Layer_1" xmlns="http://www.w3.org/2000/svg" xmlns:xlink="http://www.w3.org/1999/xlink" x="0px" y="0px"
	 viewBox="0 0 400 400" style="enable-background:new 0 0 400 400;" xml:space="preserve">
<path style="fill:#F5E6C6;" d="M260,307.8l34,59.2c4,6.8,1.6,15.2-5.2,19.2l0,0c-6.8,4-15.2,1.6-19.2-5.2L228,308.2"/>
<path style="fill:#C39215;" d="M281.6,396.2c-2,0-4-0.4-5.6-0.8c-5.6-1.6-10.4-5.2-13.2-10.4l-41.6-72.8c-2-4-0.8-8.8,2.8-10.8
	c4-2,8.8-0.8,10.8,2.8l41.6,72.8c0.8,1.6,2,2.4,3.6,2.8c1.2,0.4,2.8,0.4,4.4-0.8c1.6-0.8,2.4-2.4,2.8-3.6s0.4-2.8-0.8-4.4
	l-33.2-59.2c-2-4-0.8-8.8,2.8-10.8c4-2.4,8.8-0.8,10.8,2.8l34,59.2c2.8,5.2,3.6,11.2,2.4,16.8c-1.6,5.6-5.2,10.4-10.4,13.2
	C289.6,395,285.6,396.2,281.6,396.2z"/>
<path style="fill:#F5E6C6;" d="M140,307.8L106,367c-4,6.8-1.6,15.2,5.2,19.2l0,0c6.8,4,15.2,1.6,19.2-5.2l41.6-72.8"/>
<path style="fill:#C39215;" d="M118.4,396.2c-4,0-7.6-1.2-11.2-3.2c-10.8-6.4-14.4-19.6-8-30l34-59.2c2.4-4,7.2-5.2,10.8-2.8
	c4,2,5.2,7.2,2.8,10.8l-34,59.2c-1.6,2.8-0.8,6.4,2.4,8.4c1.6,1.2,3.6,0.8,4.4,0.8c1.6-0.4,2.8-1.6,3.6-2.8l41.6-72.8
	c2-4,7.2-5.2,10.8-2.8c4,2,5.2,7.2,2.8,10.8l-41.6,72.8c-3.2,5.2-7.6,8.8-13.2,10.4C122,395.8,120,396.2,118.4,396.2z"/>
<path style="fill:#FF793B;" d="M184,51.8v-24c0-8.8,7.2-16,16-16l0,0c8.8,0,16,7.2,16,16v24"/>
<path style="fill:#C6490F;" d="M216,59.8c-4.4,0-8-3.6-8-8v-24c0-4.4-3.6-8-8-8s-8,3.6-8,8v24c0,4.4-3.6,8-8,8s-8-3.6-8-8v-24
	c0-13.2,10.8-24,24-24c13.2,0,24,10.8,24,24v24C224,56.2,220.4,59.8,216,59.8z"/>
<path style="fill:#F5E6C6;" d="M376,115.8v160c0,17.6-14.4,32-32,32H60c-17.6,0-36-14.4-36-32v-160"/>
<path style="fill:#E5B54C;" d="M344,315.8H60c-20.8,0-44-17.2-44-40v-160c0-4.4,3.6-8,8-8s8,3.6,8,8v160c0,13.2,15.2,24,28,24h284
	c13.2,0,24-10.8,24-24v-160c0-4.4,3.6-8,8-8s8,3.6,8,8v160C384,297.8,366,315.8,344,315.8z"/>
<path style="fill:#FFC33B;" d="M284,115.8H24c-8.8,0-16-7.2-16-16v-16c0-17.6,14.4-32,32-32h56h36h148h28h52c17.6,0,32,14.4,32,32
	v16c0,7.6-5.2,13.6-12,15.6"/>
<g>
	<path style="fill:#BB8813;" d="M284,123.8H24c-13.2,0-24-10.8-24-24v-16c0-22,18-40,40-40h320c22,0,40,18,40,40v16
		c0,10.8-7.2,20-17.6,23.2c-4.4,1.2-8.8-1.2-10-5.6c-1.2-4.4,1.2-8.8,5.6-10c2.8-0.8,6.4-3.6,6.4-8v-16c0-13.2-10.8-24-24-24H40
		c-13.2,0-24,10.8-24,24v16c0,4.4,3.6,8,8,8h260c4.4,0,8,3.6,8,8S288.4,123.8,284,123.8z"/>
	<path style="fill:#BB8813;" d="M332,123.8h-12c-4.4,0-8-3.6-8-8s3.6-8,8-8h12c4.4,0,8,3.6,8,8S336.4,123.8,332,123.8z"/>
</g>
<g>
</g>
<g>
</g>
<g>
</g>
<g>
</g>
<g>
</g>
<g>
</g>
<g>
</g>
<g>
</g>
<g>
</g>
<g>
</g>
<g>
</g>
<g>
</g>
<g>
</g>
<g>
</g>
<g>
</g>
</svg>
