<?xml version="1.0" encoding="iso-8859-1"?>
<!-- Generator: Adobe Illustrator 19.0.0, SVG Export Plug-In . SVG Version: 6.00 Build 0)  -->
<svg version="1.1" id="Layer_1" xmlns="http://www.w3.org/2000/svg" xmlns:xlink="http://www.w3.org/1999/xlink" x="0px" y="0px"
	 viewBox="0 0 511.999 511.999" style="enable-background:new 0 0 511.999 511.999;" xml:space="preserve">
<path style="fill:#FFC61B;" d="M241.422,498.114C108.301,498.114,0,389.81,0,256.686S108.301,15.259,241.422,15.259
	c46.508,0,91.678,13.268,130.631,38.369c2.214,1.425,4.565,3.004,7.182,4.826l16.872,11.75c3.796,2.642,6.224,6.832,6.633,11.439
	c0.409,4.607-1.245,9.158-4.515,12.429l-49.264,49.264c-5.196,5.198-13.313,6.069-19.497,2.093l-11.665-7.502
	c-22.995-14.788-49.404-22.604-76.378-22.604c-77.946,0-141.359,63.416-141.359,141.365s63.414,141.365,141.359,141.365
	c22.346,0,44.518-5.244,64.122-15.166c3.824-1.937,7.607-4.076,11.237-6.358c7.302-4.593,16.949-2.392,21.54,4.913
	c4.59,7.305,2.392,16.949-4.915,21.54c-4.443,2.793-9.07,5.412-13.754,7.781c-23.957,12.126-51.009,18.534-78.232,18.534
	c-95.175,0-172.604-77.432-172.604-172.61S146.247,84.076,241.422,84.076c32.977,0,65.233,9.533,93.278,27.569l1.073,0.689
	l27.16-27.16l-1.55-1.08c-2.303-1.603-4.346-2.978-6.247-4.201c-33.902-21.845-73.221-33.391-113.712-33.391
	C125.53,46.504,31.245,140.791,31.245,256.686s94.286,210.183,210.177,210.183c40.192,0,79.262-11.384,112.987-32.921
	c31.89-20.368,57.653-48.853,74.675-82.517l-49.39-13.234c-8.335-2.232-13.281-10.8-11.047-19.134
	c2.234-8.331,10.793-13.281,19.133-11.047l67.698,18.139c4.504,1.206,8.233,4.362,10.169,8.602s1.876,9.125-0.162,13.318
	l-6.846,14.08c-19.511,40.131-49.739,74.061-87.412,98.124C332.468,485.032,287.583,498.114,241.422,498.114z"/>
<polygon style="fill:#FEE187;" points="283.079,185.652 496.376,242.805 439.223,29.508 "/>
<path style="fill:#FFC61B;" d="M496.375,258.428c-1.347,0-2.704-0.173-4.042-0.533l-213.297-57.151
	c-5.391-1.444-9.602-5.655-11.047-11.047c-1.445-5.391,0.097-11.143,4.043-15.09L428.177,18.462
	c3.946-3.946,9.695-5.491,15.09-4.043c5.391,1.445,9.602,5.655,11.047,11.047l57.153,213.297c1.445,5.391-0.097,11.143-4.043,15.09
	C504.454,256.82,500.466,258.428,496.375,258.428z M313.26,177.566l161.023,43.146L431.137,59.688L313.26,177.566z"/>
<g>
</g>
<g>
</g>
<g>
</g>
<g>
</g>
<g>
</g>
<g>
</g>
<g>
</g>
<g>
</g>
<g>
</g>
<g>
</g>
<g>
</g>
<g>
</g>
<g>
</g>
<g>
</g>
<g>
</g>
</svg>
