<?xml version="1.0" encoding="iso-8859-1"?>
<!-- Generator: Adobe Illustrator 18.0.0, SVG Export Plug-In . SVG Version: 6.00 Build 0)  -->
<!DOCTYPE svg PUBLIC "-//W3C//DTD SVG 1.1//EN" "http://www.w3.org/Graphics/SVG/1.1/DTD/svg11.dtd">
<svg version="1.1" id="Capa_1" xmlns="http://www.w3.org/2000/svg" xmlns:xlink="http://www.w3.org/1999/xlink" x="0px" y="0px"
	 viewBox="0 0 60 60" style="enable-background:new 0 0 60 60;" xml:space="preserve">
<g>
	<g>
		<path style="fill:#7383BF;" d="M27,3H7C6.448,3,6,3.448,6,4s0.448,1,1,1h20c0.552,0,1-0.448,1-1S27.552,3,27,3z"/>
		<path style="fill:#7383BF;" d="M53,3H33c-0.552,0-1,0.448-1,1s0.448,1,1,1h20c0.552,0,1-0.448,1-1S53.552,3,53,3z"/>
		<path style="fill:#7383BF;" d="M56,6c-0.552,0-1,0.448-1,1v20c0,0.552,0.448,1,1,1s1-0.448,1-1V7C57,6.448,56.552,6,56,6z"/>
		<path style="fill:#7383BF;" d="M53,55H33c-0.552,0-1,0.448-1,1s0.448,1,1,1h20c0.552,0,1-0.448,1-1S53.552,55,53,55z"/>
		<path style="fill:#7383BF;" d="M27,55H7c-0.552,0-1,0.448-1,1s0.448,1,1,1h20c0.552,0,1-0.448,1-1S27.552,55,27,55z"/>
		<path style="fill:#7383BF;" d="M4,6C3.448,6,3,6.448,3,7v20c0,0.552,0.448,1,1,1s1-0.448,1-1V7C5,6.448,4.552,6,4,6z"/>
		<path style="fill:#7383BF;" d="M56,32c-0.552,0-1,0.448-1,1v20c0,0.552,0.448,1,1,1s1-0.448,1-1V33C57,32.448,56.552,32,56,32z"/>
		<path style="fill:#7383BF;" d="M4,32c-0.552,0-1,0.448-1,1v20c0,0.552,0.448,1,1,1s1-0.448,1-1V33C5,32.448,4.552,32,4,32z"/>
	</g>
	<g>
		<rect x="1" y="1" style="fill:#434C6D;" width="6" height="6"/>
		<path style="fill:#434C6D;" d="M8,8H0V0h8V8z M2,6h4V2H2V6z"/>
	</g>
	<g>
		<rect x="1" y="27" style="fill:#434C6D;" width="6" height="6"/>
		<path style="fill:#434C6D;" d="M8,34H0v-8h8V34z M2,32h4v-4H2V32z"/>
	</g>
	<g>
		<rect x="53" y="27" style="fill:#434C6D;" width="6" height="6"/>
		<path style="fill:#434C6D;" d="M60,34h-8v-8h8V34z M54,32h4v-4h-4V32z"/>
	</g>
	<g>
		<rect x="27" y="53" style="fill:#434C6D;" width="6" height="6"/>
		<path style="fill:#434C6D;" d="M34,60h-8v-8h8V60z M28,58h4v-4h-4V58z"/>
	</g>
	<g>
		<rect x="27" y="1" style="fill:#434C6D;" width="6" height="6"/>
		<path style="fill:#434C6D;" d="M34,8h-8V0h8V8z M28,6h4V2h-4V6z"/>
	</g>
	<g>
		<rect x="1" y="53" style="fill:#434C6D;" width="6" height="6"/>
		<path style="fill:#434C6D;" d="M8,60H0v-8h8V60z M2,58h4v-4H2V58z"/>
	</g>
	<g>
		<rect x="53" y="1" style="fill:#434C6D;" width="6" height="6"/>
		<path style="fill:#434C6D;" d="M60,8h-8V0h8V8z M54,6h4V2h-4V6z"/>
	</g>
	<g>
		<rect x="53" y="53" style="fill:#434C6D;" width="6" height="6"/>
		<path style="fill:#434C6D;" d="M60,60h-8v-8h8V60z M54,58h4v-4h-4V58z"/>
	</g>
</g>
<g>
</g>
<g>
</g>
<g>
</g>
<g>
</g>
<g>
</g>
<g>
</g>
<g>
</g>
<g>
</g>
<g>
</g>
<g>
</g>
<g>
</g>
<g>
</g>
<g>
</g>
<g>
</g>
<g>
</g>
</svg>
