<?xml version="1.0" encoding="iso-8859-1"?>
<!-- Generator: Adobe Illustrator 19.0.0, SVG Export Plug-In . SVG Version: 6.00 Build 0)  -->
<svg version="1.1" id="Layer_1" xmlns="http://www.w3.org/2000/svg" xmlns:xlink="http://www.w3.org/1999/xlink" x="0px" y="0px"
	 viewBox="0 0 512 512" style="enable-background:new 0 0 512 512;" xml:space="preserve">
<circle style="fill:#E4E7ED;" cx="256" cy="256" r="256"/>
<path style="fill:#5D718F;" d="M256,145.224c61.177,0,110.776,49.6,110.776,110.776S317.177,366.776,256,366.776
	S145.224,317.177,145.224,256S194.823,145.224,256,145.224z"/>
<path style="fill:#6B7F9E;" d="M256,145.224c43.868,0,81.777,25.481,99.71,62.482c2.724,10.045,4.143,20.6,4.143,31.496
	c0,66.852-54.196,120.991-120.991,120.991c-9.931,0-19.579-1.192-28.829-3.462c-38.193-17.479-64.752-56.012-64.752-100.788
	c0-61.177,49.6-110.776,110.776-110.776L256,145.224z"/>
<path style="fill:#F7F9F7;" d="M325.235,169.513c20.6,16.514,35.185,40.179,39.895,67.306c-0.341-0.511-0.681-1.192-1.022-2.157
	c-2.156,0.738-2.213,0.738-4.767,1.192l-0.114,0.17c-1.021,1.419,0.057,0.851-1.759,2.327c-2.1,1.816-3.518,4.256-5.902,5.675
	c-0.284,2.554,0.227,3.121-0.397,6.129c-0.227,1.135-1.476,4.086-2.951,3.859c-0.454-0.057-2.44-4.937-2.894-6.243
	c-0.794-2.27-1.646-3.973-2.213-6.583c-0.341-1.419-0.511-4.086-0.851-4.994c-1.532,0.227-1.475,1.192-2.894,0.17
	c-1.022-0.738-0.568-1.192-1.135-2.327c-1.192-1.135-2.44-2.27-3.689-3.405c-0.965-0.284-4.654,0.227-6.186,0.057
	c-2.781-0.284-3.065-0.113-4.71-2.327c-2.951,0.17-2.724,1.249-5.562-1.249c-1.873-1.589-1.532-4.143-4.256-2.724
	c-0.113,2.327,1.021,2.838,2.043,3.916c0.738,0.851,1.646,1.419,2.043,2.497c0.057,0.057,0.227,1.078,0.227,1.192
	c2.667,0.17,3.292-1.078,4.767-2.157c1.419,1.305,0.057,1.589,2.1,2.611c1.646,0.851,1.305,0.34,2.384,1.702
	c0.511,1.816-3.632,6.64-5.051,7.548c-1.078,0.681-1.646,0.284-2.611,1.078c-1.419,1.192,0.17,1.021-2.327,1.93
	c-2.667,0.965-5.278,3.008-8.059,3.178c-0.624-1.646-1.192-3.348-1.816-4.994c-1.759-5.732-1.702-3.519-3.518-6.47
	c-0.851-1.305-0.511-2.1-1.078-3.235c-0.397-0.851-0.965-1.249-1.532-2.27c-0.795-1.646-1.759-4.143-3.632-3.916
	c-0.397,1.249,1.759,5.618,2.27,6.64c0.511,1.078,1.362,1.532,1.646,3.008c0.34,2.043-0.057,1.816,1.078,3.178
	c2.384,2.894-0.113,2.384,3.575,5.164c2.781,2.1,2.043,2.724,3.235,5.562c1.816,0.511,7.207-1.873,8.115-1.192
	c1.078,1.986-1.249,5.108-1.873,6.81c-1.986,5.732-5.448,5.618-8.115,9.988c-1.475,2.383-2.1,2.667-3.462,5.505
	c-1.532,3.235,3.065,12.088,0.341,15.833c-0.624,0.851-2.554,1.362-4.994,3.973c-2.611,2.781,0.057,2.327-0.908,7.037
	c-0.794,1.078-1.759,1.135-2.667,1.93c-0.341,1.078-0.057,1.986-0.681,3.348c-0.624,1.646-0.738,0.738-1.646,2.1
	c-0.681,1.022-0.624,1.476-1.362,2.44c-0.681,0.908-1.021,1.135-1.646,1.702c-3.065,2.838-9.704,2.951-10.272,2.554
	c-1.589-1.305-0.511-1.703-0.908-3.575c-0.397-1.646-1.249-3.008-1.986-4.313l-0.057-0.113c-0.341-0.624-0.681-1.249-0.851-1.816
	c-1.249-4.029-0.794-7.094-3.065-11.18c-2.781-5.278,1.532-8.059,1.362-11.01c-0.057-0.794-0.34-1.249-0.397-1.93
	c-0.511-3.292-0.851-6.243-3.065-8.853c-2.44-2.837-2.1-1.816-1.305-6.47c0.965-5.335-1.249-3.973-4.483-4.086
	c-1.589-4.824-4.597-2.497-7.661-1.022c-1.93,0.851-2.611-0.227-4.767,0.057c-4.824,0.681-1.021,2.724-7.491-2.384
	c-2.667-2.157-0.908-1.021-2.497-3.689c-0.511-0.965-2.157-2.27-2.894-3.235c-2.44-3.065,0.454-6.186,0.057-9.704
	c-0.738-6.526-1.816-0.851,1.816-8.74c1.93-4.2,4.824-4.256,5.562-6.129c0.624-1.703,0.227-2.894,1.419-4.427
	c1.078-1.249,2.611-1.022,3.178-2.951c0.851-2.44-0.795-2.724-2.554-2.781c-0.738-2.554-0.738-1.873-0.17-4.256
	c0.34-1.305,0.057-1.93,0.34-3.235c0.738-3.292,6.299,0,7.888-1.362c0.738-1.419,0.851-2.781,0-4.086
	c-0.908-1.305-2.043-1.135-2.667-2.44c1.362-0.908,0.34-0.113,1.532-0.34c1.362-0.284,1.192-0.738,2.837-1.021
	c1.476-0.284,2.384-1.646,3.802-2.554c2.043-1.305,1.078-2.497,3.518-2.894c3.916-0.681,1.362-0.568,1.816-4.256
	c0.624-0.227,1.192-0.511,1.759-0.738c1.249,1.646-0.34,0.965,1.192,2.043c0.397-0.227,0.851-0.454,1.249-0.681
	c-0.227-1.759-1.022-1.419-1.532-3.632c-1.93,0.284-2.667,1.986-4.2,1.362c-1.532-0.568-1.589-2.781-1.532-4.597
	c0.568-1.362,3.405-2.1,4.483-2.44c1.759-0.624,1.532-1.816,3.178-3.405c2.1-2.157,0.568,0,1.589-2.724
	c2.327-0.113,1.249-0.17,2.611-0.908l0.057-0.057l0.17-0.057c0.794-0.397,1.873-0.454,2.951-0.851
	c3.916-1.305,5.505-0.681,8.342,0.511c2.213,0.908,8.853,0.965,9.307,3.746c-1.589,1.646-3.121,0.454-5.448,0.624
	c0.397,2.157,0.624,2.157,2.554,2.724c0.34-1.022-0.113-0.624,0.397-1.249c0.624,0.113,1.305,0.227,1.93,0.34
	c0.624-2.213,1.362-1.873,3.575-2.157c-0.34-1.532-0.738-1.078,0.057-2.27c2.213,0.227,0.397,0.057,1.532,1.816
	c1.532-0.17,3.064-1.93,5.221-2.156c1.362-0.114,1.249,0.397,3.178,0.17c1.589-0.17,1.475-0.738,3.065-0.057
	c0.568-1.078,0-1.021,1.362-1.305c2.1-0.34,3.973,0.908,6.016,1.249c-1.532-1.873-2.951-1.532-1.078-4.654
	c2.384-0.511,2.611-0.113,3.632,1.646c0.568-0.34,0.851-0.681,1.135-0.851L325.235,169.513z M147.891,232.108
	c4.994-22.7,16.912-42.79,33.483-57.942c1.305,0.454,3.008,0.17,4.256,0.114c0.454-0.851,0.738-1.589,1.532-1.93
	c0.34-0.113,0.738-0.113,1.249-0.113c0.057,0.397,0.17,0.851,0.284,1.249c0,0.057,0.057,0.34,0.057,0.284
	c0.057-0.057,0.057,0.17,0.114,0.227c2.213-1.305,0.34-1.305,1.532-3.689c-1.873-0.34-1.646-0.17-2.781-1.362
	c1.135-1.249,3.348-1.703,4.994-1.532c-0.113,1.135-0.624,1.078-0.227,2.043c1.249-0.794,2.156-2.894,4.2-2.554
	c0.397,0.284,0.851,0.568,1.249,0.795c-1.078,1.021-2.667,1.078-4.029,1.646c-0.624,6.186,1.93,1.021,1.078,5.221
	c1.532-0.113,3.008-1.248,3.575-2.383c-0.568-0.738-1.362-0.738-1.816-1.646c0.34-1.135,1.135-1.986,2.213-2.497
	c0.738-0.34,1.589-0.511,2.611-0.511c11.293,0.114,5.902,0.624,9.421,2.213c0.795,0.34,2.157,0.511,2.611,1.192
	c0.738,1.078,0.057,2.1,1.192,2.951c0.965,0.738,1.135,0,2.44,1.646c-0.284,0.908-0.965,1.873-2.327,1.93
	c-1.93,0-0.794-1.305-2.838-1.078c0.057,1.93,1.93,2.667,0.17,3.746c-1.532,0.908-0.568-0.34-1.759,0.284
	c-0.057,0.057-0.113,0.057-0.17,0.113s-0.114,0.114-0.17,0.17c-0.227,0.227-0.397,0.397-0.567,0.624
	c-2.838-0.795-2.327-0.397-4.029-2.327c-0.624-0.738-0.738-0.908-1.873-0.794c-0.738,0-1.646,0.34-2.327-0.284
	c1.362-1.759,2.043-0.057,4.086-1.078c0.341-0.17,2.611-1.873,2.951-2.327c-0.624-1.362-0.057-0.227-0.965-1.135
	c-1.986-1.986-2.554-1.532-5.221-1.532c-1.249,1.476-2.213,3.235-3.575,4.029c-0.851,0.454-1.816,0.567-3.121,0
	c0.624,2.44,2.157,0.567,2.327,3.519c-1.021-0.227-1.589-0.738-2.611-0.34c-2.27,0.851-0.227,0.794-0.057,1.249
	c0,0,1.078,0.113,0,0.567c-1.192,0.397-0.17-0.227-2.44-1.589c0.34-0.567,0.624-1.135,0.965-1.759
	c-1.816,0.568-4.143,1.475-6.299,2.554c-2.44,1.192-4.767,2.611-6.129,3.916c-0.057,2.157,0.34,0.738,0.568,3.235
	c3.292,0.17,2.213,1.192,5.505,2.1c0.624,0.17,1.476,0.34,2.44,0.511c0,1.589-1.419,2.781-0.454,4.427
	c2.327,1.589,2.383-1.532,2.951-3.575c7.832-1.646,4.029-3.916,6.072-8.229c0.284-0.624,0.738-1.305,1.362-2.043
	c0.624,0.057,3.065,0.284,3.575,0.397c1.759,0.284,0.794,0.738,2.724,1.589c-0.057,1.532-0.794,3.519,1.476,3.178
	c1.759-0.284,1.362-1.702,3.462-2.043c0.965,2.27,0.681,3.235,1.135,5.902c5.108,1.986,2.838,3.632,1.816,7.321
	c0.624,0.284,1.305,0.624,1.986,0.851c-0.057,1.078-0.057,2.157-0.113,3.178c-0.113,0-5.448-1.192-5.845-1.249
	c0.794-2.327,2.327-2.383,3.292-4.767c-1.93,0.34-1.759,0.908-3.178,1.362c-1.249,0.397-2.213,0.114-3.519,0.284
	c-0.454,1.532-0.057-1.362,0.113,0.624c0.057,0.738,0.397,0.057-0.057,0.851c-1.759-0.851-1.192-2.781-4.483-0.965
	c0.738,0.34,1.476,0.624,2.27,0.965c-0.113,2.157-0.284,0.511-0.738,1.986c-1.135,3.746,3.064,1.419,4.2,1.192
	c-0.284,1.986-1.476,1.986-3.178,2.497c-1.873,0.568-2.44,1.362-3.916,1.702c0-2.327-0.34-0.397,0.681-1.986
	c-1.476,0.113-2.611,0.851-4.029,1.419l-0.17,0.057c-1.816,0.738-2.1,0.851-2.327,3.178c-1.532,0.454-3.348,1.021-4.483,2.156
	c-1.078,1.022-2.213,2.1-3.292,3.121c-0.114,0.114-0.17,0.17-0.227,0.227c0.397,2.951,0,3.008-1.759,4.143
	c-1.475,0.965-1.986,0.908-3.348,2.157c-4.427,3.973-2.327,2.1-2.043,8.967c-0.908-0.284-1.816-0.624-2.667-0.908
	c-0.681-4.54,0.227-3.008-3.405-4.086c-3.916-1.135-3.405,0.795-5.051,1.135c-1.816,0.397-2.724-1.646-5.335,0.057
	c-1.475,0.965-2.837,1.646-3.178,3.405c-0.397,2.157-1.362,3.689-1.248,6.072c0.227,6.413,6.072,6.753,7.548,3.802
	c0.965-1.986,0.738-3.065,3.973-2.554c0.34,1.702-0.17,2.951-0.624,4.256c-0.284,0.795-1.078,2.157-0.681,3.235
	c2.327,0.908,2.383-0.851,5.448,0.965c0.227,3.008-1.362,6.47,0.965,8.229c1.816,1.305,1.93,0.113,3.519-0.114
	c1.759-0.284,1.476,0.795,3.065,1.021c0.908-1.135,0.511-0.397,1.135-1.816c1.078-2.384,1.362-1.249,3.859-2.724
	c0.227-0.113,0.454-0.284,0.738-0.454c0.284,0.624,0.624,1.192,0.908,1.759c1.873-2.213,2.043-0.057,4.2,0.568
	c0.908,0.227,1.589,0.34,2.043,0.34c1.532,0,1.703-0.738,3.802,0c0.227,0.114,0.568,0.227,0.851,0.284
	c0.057,0,0.113,0.057,0.113,0.113c0.057,0,0.17,0.114,0.17,0.17c0.34,0.397,0.397,0.794,0.681,1.192
	c1.476,1.419,2.894,2.781,4.313,4.143c2.781,1.135,2.781-0.965,6.016,2.1c1.362,1.305,0.738,1.249,1.475,2.894
	c0.114,0.284,0.34,0.511,0.454,0.851c0.284,0.794,0.624,1.532,0.908,2.27c1.475,1.93,3.462,0.738,5.448,2.667
	c1.192,1.135,0.284,0.795,2.894,1.249c4.029,0.681,2.44,0.284,5.505,2.611c1.192,0.851,1.476,0.341,2.554,1.078
	c1.532,2.156,1.135,4.427-0.113,6.299c-3.916,5.732-2.611,4.824-2.781,9.364c-0.17,2.611-0.908,8.002-3.348,8.683
	c-8.91,2.497-3.746,4.256-6.072,8.626c-0.681,1.249-1.192,1.589-1.589,2.554c-1.759,4.143-0.511,5.561-5.789,4.597
	c0.511,0.851,0.17,0.284,0.681,1.078c1.532,2.44,1.816,4.256-1.362,4.824c-2.667,0.511-1.532,0-1.759,2.951
	c-1.022,0.397-1.476,0-2.157,0.681c0.908,1.703,0.057,0.284,1.646,1.249c-0.284,0.908-0.511,1.873-0.738,2.724
	c-0.624,2.213-0.795,0.17-0.965,2.781c0.908,0.397,1.589,0.34,2.383,1.475c-0.113,0.851-0.965,3.178-1.192,4.483
	c1.305,1.986,2.384,4.086,5.164,4.256c-0.057,1.646,0.34,1.475-1.078,1.816c-1.192,0.284-3.746-0.851-4.824-1.419
	c-1.816-1.022-3.519-2.327-4.767-4.2c-0.681-1.078-0.397-0.568-1.192-1.532c-1.362-1.759-0.794-2.554-1.192-3.689
	c-0.227-0.681-1.305-1.419-0.851-3.632c0.113-0.624,1.078-3.632-0.114-3.121c-1.192,0.511,0.908,0.284-0.738,1.078
	c-0.397-1.078-0.738-2.667-0.908-4.029c-0.397-2.27-0.965-2.327-1.192-3.689c-0.511-3.178,0.795-3.519-0.681-8.74
	c-0.965-3.462-0.568-11.691-1.646-15.947c-0.17-0.681-0.34-1.249-0.624-1.702c-0.965-1.589-3.292-2.327-5.164-3.632
	c-0.114,0-0.17-0.057-0.227-0.113c-2.611-1.816-5.051-8.967-7.094-11.634c-0.965-1.305-1.532-0.738-1.986-2.724
	c-0.454-1.873,0.227-1.532,0.851-3.065c-3.178-5.789,4.086-5.732,2.611-12.655c-0.34-1.248-1.249-3.064-2.043-3.632
	c-1.476,0.681-0.795,1.022-1.589,2.27c-1.192-0.681-2.384-1.362-3.575-2.043c-3.632-3.519-1.703-0.965-2.724-3.292
	c-2.213-4.824-4.313-2.1-6.924-4.54c-1.192-1.021-1.362-2.554-3.348-2.27c-2.951,0.397-1.305,0.851-4.37-0.568
	c-2.611-1.192-5.278-2.667-7.094-4.313c-0.114-3.462,0.965-3.121-1.646-6.299V232.108z M182.622,173.088
	c0.681-0.568,1.362-1.192,2.043-1.759l0.057,0.114c0.114,0.227,0.227,0.227,0.397,0.851c-1.816,0.454-1.816,0.738-2.497,0.851
	V173.088z M277.395,206.003c0.965,0.624,2.157,1.078,2.894,1.759c0.908,2.554-0.227,1.305,1.532,3.973
	c1.022,1.419,0.795,2.44,1.873,3.235c1.93-0.227,0.227,0.34,1.475-0.851c0.227-0.227,0.794-0.965,0.965-1.192
	c-0.624-0.965-1.021-1.078-1.589-2.043c2.213-2.894,3.178-1.249,3.689,0.681c1.362,5.391,3.519,3.802,5.278,3.575
	c1.816-0.227,0.227,0.057,1.873,0.511c1.589,0.397,0.794,0,1.93-0.284c3.746-0.908,0.851,6.299,0.454,7.094
	c-2.043,0.227-1.646-0.17-3.065-0.341c-2.951-0.284,0.17,1.759-6.753-0.511c-6.64-2.1-5.221-2.611-6.64,2.043
	c-1.532-0.113-1.475-0.397-2.894-0.908c-0.568-0.227-0.851-0.34-1.078-0.397h-0.057c-0.568-0.17,0,0-1.192-1.135
	c-1.022-0.965-3.519-1.192-5.335-2.157c0-1.532,1.362-2.781-0.284-4.654c-0.511-0.113-8.059,0.17-9.307,0.397
	c-2.44,0.511-2.894,2.611-6.243,2.157c-1.816-0.284-1.192-0.057-1.646-1.135c0.624-0.624,0-0.284,1.021-0.681
	c0.397-0.113,0.511-0.113,0.908-0.113c5.448-0.851,2.667-3.575,6.072-6.243c2.837-2.27,0.624,0.057,2.156-2.724
	c1.93-0.17,1.646,0.794,3.292,0c1.362-0.681,0.908-1.249,2.837-1.362c1.703,1.703,1.362,2.724,4.143,4.029
	c1.078,0.511,1.759,0.795,2.497,1.759c1.249,1.816,0.17,1.249,0.681,2.497c0.113-0.057,0.227-0.114,0.397-0.17l0.057-0.057
	c1.475-0.738-0.738-0.965,1.646-3.065c-0.681-0.511-1.192-0.851-1.646-1.135l-0.057-0.057c-1.873-1.078-1.135-0.057-3.518-3.064
	c-0.624-0.851-0.795-0.908-0.795-2.213c1.759-0.284,2.043,0.965,3.632,2.327c0.227,0.227,0.454,0.397,0.738,0.568l0.057,0.057
	V206.003z M315.247,282.446c-1.532,0.794-1.759,2.611-2.951,3.632c-1.249,1.192-3.008,0.624-3.462,2.781
	c-0.624,2.724,1.078,1.873-0.794,5.391c-0.681,1.305-0.738,4.597,0.34,5.562c3.065,2.951,4.767-4.54,5.448-6.924
	c0.511-1.702,1.021-3.575,1.589-5.164c0.568-1.703,1.362-3.178-0.17-5.335V282.446z M310.14,203.222
	c0.227,3.462,2.327,4.824,3.746,6.413c-0.17,1.646-0.567,1.249-0.511,3.519c1.759,1.249,3.008,2.043,5.278,1.419
	c0.34-2.781-0.568-2.667-1.419-4.54c0.113-0.227,0.511-0.511,0.624-0.567c0.624-0.851,0.34,0.34,0.624-1.078
	c-1.646-0.568-4.37-2.27-4.597-4.483c0.795-0.624,0.568-0.227,1.192-0.624c1.305-0.851,0.34,0.454,1.078-1.021
	c-0.681-1.305-1.419-1.532-3.065-0.908c-0.738,0.284-2.611,1.646-2.951,1.93V203.222z M295.612,204.13
	c-1.078-1.532-1.022-2.327-3.178-2.384c-0.851,0.908-1.816,2.27-2.327,3.689c-0.681,2.1-0.227,0.681-0.113,2.951
	c-0.057,0.057,0,0.17,0,0.284c-0.057,1.362-0.34-0.284-0.17,1.021c1.646-0.34,0.397-0.34,1.646-0.738
	c1.192-0.397,4.767-1.476,5.789-1.192c2.44,0.568,4.483,2.497,7.264,0.568c-0.113-2.497-3.121-3.405-5.164-4.483
	c0.114-2.27,0.681-0.454,0.568-2.667c-0.681-0.057-1.135-0.113-1.816,0.114c-1.589,0.738-0.738,0.908-0.738,1.135
	c0.057,1.249,1.589-0.227-0.057,1.249c-0.454,0.397-1.192,0.397-1.759,0.454H295.612z M254.184,186.935
	c-0.057,3.973,1.305,2.667,2.61,4.597c-0.624,1.702-0.738,0.34-1.362,2.1c-0.624,1.475,0.114,0.17-0.227,2.667
	c1.021,0.057,2.554-0.284,3.916-0.397c1.93-0.17,1.873-0.34,2.554-2.327c-1.078-1.305-2.1-2.611-3.235-3.916
	c-1.362-2.1,0-0.681-0.397-2.44c-0.34-0.624-0.624-1.249-0.908-1.873c-1.816,0.624-1.646,0.454-2.894,1.589H254.184z"/>
<path style="fill:#5FDC68;" d="M70.711,162.759l31.326-12.599l-5.505-13.393l50.508,21.679l-20.6,51.359l-6.47-15.947l-26.9,10.783
	c-11.974,14.812-13.053,33.823-4.086,56.693l-28.886-22.53c-12.826-9.988-18.898-24.97-16.685-41.087
	C45.684,181.601,55.558,168.832,70.711,162.759z"/>
<path style="fill:#56BF5D;" d="M93.07,204.698c-48.748,18.671-5.391,55.672-5.391,55.672l1.305,1.021
	C80.869,242.266,79.847,223.312,93.07,204.698z"/>
<path style="fill:#5FDC68;" d="M115.089,402.756l-2.327-33.71l-14.415,1.078l36.207-41.371l42.506,35.469l-17.139,1.249
	l1.986,28.886c10.385,15.947,28.148,22.87,52.664,21.395l-30.361,20.544c-13.507,9.137-29.624,10.272-44.265,3.121
	c-14.642-7.151-23.722-20.487-24.857-36.774V402.756z"/>
<path style="fill:#56BF5D;" d="M161.851,394.414c2.667,52.153,51.302,22.36,51.302,22.36l1.419-0.965
	c-20.714,1.816-39.044-3.121-52.664-21.395H161.851z"/>
<path style="fill:#5FDC68;" d="M357.015,434.706l-32.745-8.229l-3.405,14.074l-28.148-47.216l46.876-29.453l-4.143,16.685
	l28.091,7.037c18.387-4.937,30.418-19.749,36.661-43.471l10.158,35.242c4.483,15.663,0.624,31.326-10.669,43.073
	c-11.293,11.747-26.843,16.231-42.619,12.258H357.015z"/>
<path style="fill:#56BF5D;" d="M363.542,387.66c50.394,13.563,37.115-41.882,37.115-41.882l-0.454-1.589
	C395.492,364.45,385.163,380.396,363.542,387.66z"/>
<path style="fill:#5FDC68;" d="M462.173,214.516l-17.933,28.602l12.315,7.605l-53.629,12.201l-13.507-53.686l14.642,9.08
	l15.379-24.573c0.965-19.011-9.364-35.015-30.021-48.294l36.604,1.249c16.287,0.567,29.964,9.08,37.625,23.495
	C471.31,184.552,470.799,200.725,462.173,214.516z"/>
<path style="fill:#56BF5D;" d="M419.44,193.745c28.489-43.754-28.375-48.238-28.375-48.238l-1.703-0.057
	c17.82,10.726,29.794,25.481,30.021,48.294H419.44z"/>
<path style="fill:#5FDC68;" d="M285.226,46.422l21.679,25.935l11.01-9.364l-4.994,54.764l-55.218-3.746l13.166-11.123
	l-18.614-22.246c-17.82-6.81-36.207-1.93-55.218,13.62l12.485-34.447c5.562-15.323,17.933-25.708,33.937-28.545
	c16.06-2.838,31.269,2.667,41.711,15.152H285.226z"/>
<path style="fill:#56BF5D;" d="M252.254,80.699c-32.802-40.576-54.65,12.031-54.65,12.031l-0.568,1.589
	C212.756,80.699,230.462,73.889,252.254,80.699z"/>
<g>
</g>
<g>
</g>
<g>
</g>
<g>
</g>
<g>
</g>
<g>
</g>
<g>
</g>
<g>
</g>
<g>
</g>
<g>
</g>
<g>
</g>
<g>
</g>
<g>
</g>
<g>
</g>
<g>
</g>
</svg>
